<mxfile host="app.diagrams.net" agent="Mozilla/5.0 (Windows NT 10.0; Win64; x64) AppleWebKit/537.36 (KHTML, like Gecko) Chrome/128.0.0.0 Safari/537.36 Edg/128.0.0.0" version="26.0.2">
  <diagram name="第 1 页" id="Tw_ldxj9T30k2tQUZztc">
    <mxGraphModel dx="1476" dy="816" grid="1" gridSize="10" guides="1" tooltips="1" connect="1" arrows="1" fold="1" page="1" pageScale="1" pageWidth="827" pageHeight="1169" math="1" shadow="0">
      <root>
        <mxCell id="0" />
        <mxCell id="1" parent="0" />
        <mxCell id="JhTt8mr3__U7guTdzDIK-25" value="" style="rounded=1;whiteSpace=wrap;html=1;dashed=1;" vertex="1" parent="1">
          <mxGeometry x="345" y="240" width="335" height="290" as="geometry" />
        </mxCell>
        <mxCell id="m2-QjBwtmF1LAaLvU-N3-1" value="&lt;font style=&quot;font-size: 25px;&quot;&gt;training&lt;/font&gt;" style="text;html=1;align=center;verticalAlign=middle;resizable=0;points=[];autosize=1;strokeColor=none;fillColor=none;" parent="1" vertex="1">
          <mxGeometry x="460" y="195" width="110" height="40" as="geometry" />
        </mxCell>
        <mxCell id="m2-QjBwtmF1LAaLvU-N3-2" value="&lt;span style=&quot;color: rgb(0, 0, 0); font-family: Helvetica; font-style: normal; font-variant-ligatures: normal; font-variant-caps: normal; font-weight: 400; letter-spacing: normal; orphans: 2; text-indent: 0px; text-transform: none; widows: 2; word-spacing: 0px; -webkit-text-stroke-width: 0px; white-space: nowrap; background-color: rgb(251, 251, 251); text-decoration-thickness: initial; text-decoration-style: initial; text-decoration-color: initial; float: none; display: inline !important;&quot;&gt;&lt;font style=&quot;font-size: 25px;&quot;&gt;inference&lt;/font&gt;&lt;/span&gt;" style="text;whiteSpace=wrap;html=1;align=center;" parent="1" vertex="1">
          <mxGeometry x="830" y="195" width="100" height="40" as="geometry" />
        </mxCell>
        <mxCell id="JhTt8mr3__U7guTdzDIK-3" style="edgeStyle=orthogonalEdgeStyle;rounded=0;orthogonalLoop=1;jettySize=auto;html=1;entryX=0.5;entryY=0;entryDx=0;entryDy=0;" edge="1" parent="1" source="JhTt8mr3__U7guTdzDIK-1" target="JhTt8mr3__U7guTdzDIK-2">
          <mxGeometry relative="1" as="geometry" />
        </mxCell>
        <mxCell id="JhTt8mr3__U7guTdzDIK-1" value="$$model_{base}$$" style="rounded=0;whiteSpace=wrap;html=1;" vertex="1" parent="1">
          <mxGeometry x="370" y="290" width="70" height="30" as="geometry" />
        </mxCell>
        <mxCell id="JhTt8mr3__U7guTdzDIK-6" style="edgeStyle=orthogonalEdgeStyle;rounded=0;orthogonalLoop=1;jettySize=auto;html=1;entryX=0.5;entryY=0;entryDx=0;entryDy=0;" edge="1" parent="1" source="JhTt8mr3__U7guTdzDIK-2" target="JhTt8mr3__U7guTdzDIK-5">
          <mxGeometry relative="1" as="geometry" />
        </mxCell>
        <mxCell id="JhTt8mr3__U7guTdzDIK-2" value="$$model_{sft}$$" style="rounded=0;whiteSpace=wrap;html=1;fillColor=#f5f5f5;fontColor=#333333;strokeColor=#666666;" vertex="1" parent="1">
          <mxGeometry x="370" y="350" width="70" height="30" as="geometry" />
        </mxCell>
        <mxCell id="JhTt8mr3__U7guTdzDIK-4" value="sft" style="text;html=1;align=center;verticalAlign=middle;resizable=0;points=[];autosize=1;strokeColor=none;fillColor=none;" vertex="1" parent="1">
          <mxGeometry x="394" y="320" width="40" height="30" as="geometry" />
        </mxCell>
        <mxCell id="JhTt8mr3__U7guTdzDIK-23" style="edgeStyle=orthogonalEdgeStyle;rounded=0;orthogonalLoop=1;jettySize=auto;html=1;entryX=0.5;entryY=0;entryDx=0;entryDy=0;" edge="1" parent="1" source="JhTt8mr3__U7guTdzDIK-5" target="JhTt8mr3__U7guTdzDIK-21">
          <mxGeometry relative="1" as="geometry" />
        </mxCell>
        <mxCell id="JhTt8mr3__U7guTdzDIK-5" value="$$model_{cot}$$" style="rounded=0;whiteSpace=wrap;html=1;fillColor=#d5e8d4;strokeColor=#82b366;" vertex="1" parent="1">
          <mxGeometry x="370" y="410" width="70" height="30" as="geometry" />
        </mxCell>
        <mxCell id="JhTt8mr3__U7guTdzDIK-7" value="cot" style="text;html=1;align=center;verticalAlign=middle;resizable=0;points=[];autosize=1;strokeColor=none;fillColor=none;" vertex="1" parent="1">
          <mxGeometry x="394" y="378" width="40" height="30" as="geometry" />
        </mxCell>
        <mxCell id="JhTt8mr3__U7guTdzDIK-9" style="edgeStyle=orthogonalEdgeStyle;rounded=0;orthogonalLoop=1;jettySize=auto;html=1;entryX=0.5;entryY=0;entryDx=0;entryDy=0;" edge="1" parent="1" source="JhTt8mr3__U7guTdzDIK-8" target="JhTt8mr3__U7guTdzDIK-10">
          <mxGeometry relative="1" as="geometry">
            <mxPoint x="515" y="360" as="targetPoint" />
          </mxGeometry>
        </mxCell>
        <mxCell id="JhTt8mr3__U7guTdzDIK-12" style="edgeStyle=orthogonalEdgeStyle;rounded=0;orthogonalLoop=1;jettySize=auto;html=1;" edge="1" parent="1" source="JhTt8mr3__U7guTdzDIK-8">
          <mxGeometry relative="1" as="geometry">
            <mxPoint x="580" y="305" as="targetPoint" />
          </mxGeometry>
        </mxCell>
        <mxCell id="JhTt8mr3__U7guTdzDIK-8" value="$$model_{cot}$$" style="rounded=0;whiteSpace=wrap;html=1;fillColor=#d5e8d4;strokeColor=#82b366;" vertex="1" parent="1">
          <mxGeometry x="480" y="290" width="70" height="30" as="geometry" />
        </mxCell>
        <mxCell id="JhTt8mr3__U7guTdzDIK-22" style="edgeStyle=orthogonalEdgeStyle;rounded=0;orthogonalLoop=1;jettySize=auto;html=1;entryX=0.5;entryY=0;entryDx=0;entryDy=0;" edge="1" parent="1" source="JhTt8mr3__U7guTdzDIK-10" target="JhTt8mr3__U7guTdzDIK-21">
          <mxGeometry relative="1" as="geometry" />
        </mxCell>
        <mxCell id="JhTt8mr3__U7guTdzDIK-10" value="$$PRM_{freeze}$$" style="rounded=0;whiteSpace=wrap;html=1;fillColor=#dae8fc;strokeColor=#6c8ebf;" vertex="1" parent="1">
          <mxGeometry x="480" y="410" width="70" height="30" as="geometry" />
        </mxCell>
        <mxCell id="JhTt8mr3__U7guTdzDIK-11" value="training" style="text;html=1;align=center;verticalAlign=middle;resizable=0;points=[];autosize=1;strokeColor=none;fillColor=none;" vertex="1" parent="1">
          <mxGeometry x="540" y="350" width="60" height="30" as="geometry" />
        </mxCell>
        <mxCell id="JhTt8mr3__U7guTdzDIK-13" value="query" style="text;html=1;align=center;verticalAlign=middle;resizable=0;points=[];autosize=1;strokeColor=none;fillColor=none;" vertex="1" parent="1">
          <mxGeometry x="490" y="240" width="50" height="30" as="geometry" />
        </mxCell>
        <mxCell id="JhTt8mr3__U7guTdzDIK-14" style="edgeStyle=orthogonalEdgeStyle;rounded=0;orthogonalLoop=1;jettySize=auto;html=1;entryX=0.5;entryY=0;entryDx=0;entryDy=0;" edge="1" parent="1" source="JhTt8mr3__U7guTdzDIK-13" target="JhTt8mr3__U7guTdzDIK-8">
          <mxGeometry relative="1" as="geometry" />
        </mxCell>
        <mxCell id="JhTt8mr3__U7guTdzDIK-16" style="edgeStyle=orthogonalEdgeStyle;rounded=0;orthogonalLoop=1;jettySize=auto;html=1;" edge="1" parent="1" source="JhTt8mr3__U7guTdzDIK-15" target="JhTt8mr3__U7guTdzDIK-10">
          <mxGeometry relative="1" as="geometry">
            <Array as="points">
              <mxPoint x="625" y="350" />
              <mxPoint x="515" y="350" />
            </Array>
          </mxGeometry>
        </mxCell>
        <mxCell id="JhTt8mr3__U7guTdzDIK-15" value="resoning,answer" style="text;html=1;align=center;verticalAlign=middle;resizable=0;points=[];autosize=1;strokeColor=none;fillColor=none;" vertex="1" parent="1">
          <mxGeometry x="570" y="290" width="110" height="30" as="geometry" />
        </mxCell>
        <mxCell id="JhTt8mr3__U7guTdzDIK-19" style="edgeStyle=orthogonalEdgeStyle;rounded=0;orthogonalLoop=1;jettySize=auto;html=1;" edge="1" parent="1" source="JhTt8mr3__U7guTdzDIK-17">
          <mxGeometry relative="1" as="geometry">
            <mxPoint x="625" y="290" as="targetPoint" />
          </mxGeometry>
        </mxCell>
        <mxCell id="JhTt8mr3__U7guTdzDIK-17" value="human check" style="text;html=1;align=center;verticalAlign=middle;resizable=0;points=[];autosize=1;strokeColor=none;fillColor=none;" vertex="1" parent="1">
          <mxGeometry x="580" y="240" width="90" height="30" as="geometry" />
        </mxCell>
        <mxCell id="JhTt8mr3__U7guTdzDIK-21" value="$$o1$$" style="rounded=0;whiteSpace=wrap;html=1;fillColor=#d5e8d4;strokeColor=#82b366;" vertex="1" parent="1">
          <mxGeometry x="430" y="490" width="60" height="30" as="geometry" />
        </mxCell>
        <mxCell id="JhTt8mr3__U7guTdzDIK-24" value="ppo" style="text;html=1;align=center;verticalAlign=middle;resizable=0;points=[];autosize=1;strokeColor=none;fillColor=none;" vertex="1" parent="1">
          <mxGeometry x="440" y="440" width="40" height="30" as="geometry" />
        </mxCell>
        <mxCell id="JhTt8mr3__U7guTdzDIK-26" value="" style="rounded=1;whiteSpace=wrap;html=1;dashed=1;" vertex="1" parent="1">
          <mxGeometry x="712.5" y="248" width="335" height="290" as="geometry" />
        </mxCell>
        <mxCell id="JhTt8mr3__U7guTdzDIK-37" style="edgeStyle=orthogonalEdgeStyle;rounded=0;orthogonalLoop=1;jettySize=auto;html=1;entryX=0.5;entryY=0;entryDx=0;entryDy=0;" edge="1" parent="1" source="JhTt8mr3__U7guTdzDIK-27" target="JhTt8mr3__U7guTdzDIK-34">
          <mxGeometry relative="1" as="geometry">
            <Array as="points">
              <mxPoint x="938" y="340" />
              <mxPoint x="890" y="340" />
              <mxPoint x="890" y="360" />
            </Array>
          </mxGeometry>
        </mxCell>
        <mxCell id="JhTt8mr3__U7guTdzDIK-38" style="edgeStyle=orthogonalEdgeStyle;rounded=0;orthogonalLoop=1;jettySize=auto;html=1;entryX=0.5;entryY=0;entryDx=0;entryDy=0;" edge="1" parent="1" source="JhTt8mr3__U7guTdzDIK-27" target="JhTt8mr3__U7guTdzDIK-35">
          <mxGeometry relative="1" as="geometry" />
        </mxCell>
        <mxCell id="JhTt8mr3__U7guTdzDIK-27" value="$$o1$$" style="rounded=0;whiteSpace=wrap;html=1;fillColor=#d5e8d4;strokeColor=#82b366;" vertex="1" parent="1">
          <mxGeometry x="908" y="290" width="60" height="30" as="geometry" />
        </mxCell>
        <mxCell id="JhTt8mr3__U7guTdzDIK-31" value="query" style="text;html=1;align=center;verticalAlign=middle;resizable=0;points=[];autosize=1;strokeColor=none;fillColor=none;" vertex="1" parent="1">
          <mxGeometry x="913" y="240" width="50" height="30" as="geometry" />
        </mxCell>
        <mxCell id="JhTt8mr3__U7guTdzDIK-33" style="edgeStyle=orthogonalEdgeStyle;rounded=0;orthogonalLoop=1;jettySize=auto;html=1;entryX=0.5;entryY=0;entryDx=0;entryDy=0;" edge="1" parent="1" source="JhTt8mr3__U7guTdzDIK-31" target="JhTt8mr3__U7guTdzDIK-27">
          <mxGeometry relative="1" as="geometry" />
        </mxCell>
        <mxCell id="JhTt8mr3__U7guTdzDIK-42" style="edgeStyle=orthogonalEdgeStyle;rounded=0;orthogonalLoop=1;jettySize=auto;html=1;entryX=0.5;entryY=0;entryDx=0;entryDy=0;" edge="1" parent="1" target="JhTt8mr3__U7guTdzDIK-40">
          <mxGeometry relative="1" as="geometry">
            <mxPoint x="890.0000000000002" y="390" as="sourcePoint" />
            <Array as="points">
              <mxPoint x="890" y="400" />
              <mxPoint x="910" y="400" />
              <mxPoint x="910" y="420" />
            </Array>
          </mxGeometry>
        </mxCell>
        <mxCell id="JhTt8mr3__U7guTdzDIK-47" style="edgeStyle=orthogonalEdgeStyle;rounded=0;orthogonalLoop=1;jettySize=auto;html=1;exitX=0.5;exitY=1;exitDx=0;exitDy=0;entryX=0.534;entryY=0.03;entryDx=0;entryDy=0;entryPerimeter=0;" edge="1" parent="1" source="JhTt8mr3__U7guTdzDIK-34" target="JhTt8mr3__U7guTdzDIK-39">
          <mxGeometry relative="1" as="geometry">
            <mxPoint x="885" y="390" as="sourcePoint" />
            <mxPoint x="865" y="420" as="targetPoint" />
            <Array as="points">
              <mxPoint x="890" y="400" />
              <mxPoint x="870" y="400" />
              <mxPoint x="870" y="421" />
            </Array>
          </mxGeometry>
        </mxCell>
        <mxCell id="JhTt8mr3__U7guTdzDIK-34" value="&lt;span style=&quot;color: rgb(0, 0, 0); font-family: Helvetica; font-style: normal; font-variant-ligatures: normal; font-variant-caps: normal; font-weight: 400; letter-spacing: normal; orphans: 2; text-indent: 0px; text-transform: none; widows: 2; word-spacing: 0px; -webkit-text-stroke-width: 0px; white-space: nowrap; background-color: rgb(251, 251, 251); text-decoration-thickness: initial; text-decoration-style: initial; text-decoration-color: initial; float: none; display: inline !important;&quot;&gt;&lt;font style=&quot;font-size: 10px;&quot;&gt;resoning&lt;/font&gt;&lt;/span&gt;" style="text;whiteSpace=wrap;html=1;align=center;" vertex="1" parent="1">
          <mxGeometry x="865" y="360" width="50" height="30" as="geometry" />
        </mxCell>
        <mxCell id="JhTt8mr3__U7guTdzDIK-35" value="&lt;span style=&quot;font-family: Helvetica; font-style: normal; font-variant-ligatures: normal; font-variant-caps: normal; font-weight: 400; letter-spacing: normal; orphans: 2; text-indent: 0px; text-transform: none; widows: 2; word-spacing: 0px; -webkit-text-stroke-width: 0px; white-space: nowrap; background-color: rgb(251, 251, 251); text-decoration-thickness: initial; text-decoration-style: initial; text-decoration-color: initial; float: none; display: inline !important;&quot;&gt;&lt;font style=&quot;font-size: 10px; color: rgb(255, 0, 0);&quot;&gt;resoning&lt;/font&gt;&lt;/span&gt;" style="text;whiteSpace=wrap;html=1;align=center;" vertex="1" parent="1">
          <mxGeometry x="963" y="360" width="50" height="30" as="geometry" />
        </mxCell>
        <mxCell id="JhTt8mr3__U7guTdzDIK-39" value="&lt;span style=&quot;color: rgb(0, 0, 0); font-family: Helvetica; font-style: normal; font-variant-ligatures: normal; font-variant-caps: normal; font-weight: 400; letter-spacing: normal; orphans: 2; text-indent: 0px; text-transform: none; widows: 2; word-spacing: 0px; -webkit-text-stroke-width: 0px; white-space: nowrap; background-color: rgb(251, 251, 251); text-decoration-thickness: initial; text-decoration-style: initial; text-decoration-color: initial; float: none; display: inline !important;&quot;&gt;&lt;font style=&quot;font-size: 10px;&quot;&gt;resoning&lt;/font&gt;&lt;/span&gt;" style="text;whiteSpace=wrap;html=1;align=center;" vertex="1" parent="1">
          <mxGeometry x="850" y="420" width="37" height="20" as="geometry" />
        </mxCell>
        <mxCell id="JhTt8mr3__U7guTdzDIK-40" value="&lt;span style=&quot;color: rgb(0, 0, 0); font-family: Helvetica; font-style: normal; font-variant-ligatures: normal; font-variant-caps: normal; font-weight: 400; letter-spacing: normal; orphans: 2; text-indent: 0px; text-transform: none; widows: 2; word-spacing: 0px; -webkit-text-stroke-width: 0px; white-space: nowrap; background-color: rgb(251, 251, 251); text-decoration-thickness: initial; text-decoration-style: initial; text-decoration-color: initial; float: none; display: inline !important;&quot;&gt;&lt;font style=&quot;font-size: 10px;&quot;&gt;resoning&lt;/font&gt;&lt;/span&gt;" style="text;whiteSpace=wrap;html=1;align=center;" vertex="1" parent="1">
          <mxGeometry x="892" y="420" width="37" height="20" as="geometry" />
        </mxCell>
        <mxCell id="JhTt8mr3__U7guTdzDIK-43" style="edgeStyle=orthogonalEdgeStyle;rounded=0;orthogonalLoop=1;jettySize=auto;html=1;entryX=0.5;entryY=0;entryDx=0;entryDy=0;" edge="1" parent="1" target="JhTt8mr3__U7guTdzDIK-45">
          <mxGeometry relative="1" as="geometry">
            <mxPoint x="988" y="390" as="sourcePoint" />
            <Array as="points">
              <mxPoint x="988" y="400" />
              <mxPoint x="968" y="400" />
              <mxPoint x="968" y="420" />
            </Array>
          </mxGeometry>
        </mxCell>
        <mxCell id="JhTt8mr3__U7guTdzDIK-44" style="edgeStyle=orthogonalEdgeStyle;rounded=0;orthogonalLoop=1;jettySize=auto;html=1;entryX=0.5;entryY=0;entryDx=0;entryDy=0;" edge="1" parent="1" target="JhTt8mr3__U7guTdzDIK-46">
          <mxGeometry relative="1" as="geometry">
            <mxPoint x="988" y="390" as="sourcePoint" />
            <Array as="points">
              <mxPoint x="988" y="400" />
              <mxPoint x="1008" y="400" />
              <mxPoint x="1008" y="420" />
            </Array>
          </mxGeometry>
        </mxCell>
        <mxCell id="JhTt8mr3__U7guTdzDIK-45" value="&lt;span style=&quot;color: rgb(0, 0, 0); font-family: Helvetica; font-style: normal; font-variant-ligatures: normal; font-variant-caps: normal; font-weight: 400; letter-spacing: normal; orphans: 2; text-indent: 0px; text-transform: none; widows: 2; word-spacing: 0px; -webkit-text-stroke-width: 0px; white-space: nowrap; background-color: rgb(251, 251, 251); text-decoration-thickness: initial; text-decoration-style: initial; text-decoration-color: initial; float: none; display: inline !important;&quot;&gt;&lt;font style=&quot;font-size: 10px;&quot;&gt;resoning&lt;/font&gt;&lt;/span&gt;" style="text;whiteSpace=wrap;html=1;align=center;" vertex="1" parent="1">
          <mxGeometry x="948" y="420" width="40" height="30" as="geometry" />
        </mxCell>
        <mxCell id="JhTt8mr3__U7guTdzDIK-58" style="edgeStyle=orthogonalEdgeStyle;rounded=0;orthogonalLoop=1;jettySize=auto;html=1;" edge="1" parent="1">
          <mxGeometry relative="1" as="geometry">
            <mxPoint x="937.99" y="490" as="targetPoint" />
            <mxPoint x="1005.9968027210887" y="440" as="sourcePoint" />
            <Array as="points">
              <mxPoint x="1005.99" y="460" />
              <mxPoint x="937.99" y="460" />
            </Array>
          </mxGeometry>
        </mxCell>
        <mxCell id="JhTt8mr3__U7guTdzDIK-46" value="&lt;span style=&quot;font-family: Helvetica; font-style: normal; font-variant-ligatures: normal; font-variant-caps: normal; font-weight: 400; letter-spacing: normal; orphans: 2; text-indent: 0px; text-transform: none; widows: 2; word-spacing: 0px; -webkit-text-stroke-width: 0px; white-space: nowrap; background-color: rgb(251, 251, 251); text-decoration-thickness: initial; text-decoration-style: initial; text-decoration-color: initial; float: none; display: inline !important;&quot;&gt;&lt;font style=&quot;font-size: 10px; color: rgb(255, 0, 0);&quot;&gt;resoning&lt;/font&gt;&lt;/span&gt;" style="text;whiteSpace=wrap;html=1;align=center;" vertex="1" parent="1">
          <mxGeometry x="988" y="420" width="40" height="20" as="geometry" />
        </mxCell>
        <mxCell id="JhTt8mr3__U7guTdzDIK-49" style="edgeStyle=orthogonalEdgeStyle;rounded=0;orthogonalLoop=1;jettySize=auto;html=1;" edge="1" parent="1" source="JhTt8mr3__U7guTdzDIK-48">
          <mxGeometry relative="1" as="geometry">
            <mxPoint x="850" y="385" as="targetPoint" />
          </mxGeometry>
        </mxCell>
        <mxCell id="JhTt8mr3__U7guTdzDIK-48" value="$$PRM_{freeze}$$" style="rounded=0;whiteSpace=wrap;html=1;fillColor=#dae8fc;strokeColor=#6c8ebf;" vertex="1" parent="1">
          <mxGeometry x="730" y="370" width="70" height="30" as="geometry" />
        </mxCell>
        <mxCell id="JhTt8mr3__U7guTdzDIK-50" value="score" style="text;html=1;align=center;verticalAlign=middle;resizable=0;points=[];autosize=1;strokeColor=none;fillColor=none;" vertex="1" parent="1">
          <mxGeometry x="800" y="360" width="50" height="30" as="geometry" />
        </mxCell>
        <mxCell id="JhTt8mr3__U7guTdzDIK-52" value="&lt;font style=&quot;font-size: 7px;&quot;&gt;0.1&lt;/font&gt;" style="text;html=1;align=center;verticalAlign=middle;resizable=0;points=[];autosize=1;strokeColor=none;fillColor=none;" vertex="1" parent="1">
          <mxGeometry x="875" y="370" width="30" height="30" as="geometry" />
        </mxCell>
        <mxCell id="JhTt8mr3__U7guTdzDIK-53" value="&lt;font style=&quot;font-size: 7px;&quot;&gt;0.6&lt;/font&gt;" style="text;html=1;align=center;verticalAlign=middle;resizable=0;points=[];autosize=1;strokeColor=none;fillColor=none;" vertex="1" parent="1">
          <mxGeometry x="973" y="370" width="30" height="30" as="geometry" />
        </mxCell>
        <mxCell id="JhTt8mr3__U7guTdzDIK-54" value="&lt;font style=&quot;font-size: 7px;&quot;&gt;0.4&lt;/font&gt;" style="text;html=1;align=center;verticalAlign=middle;resizable=0;points=[];autosize=1;strokeColor=none;fillColor=none;" vertex="1" parent="1">
          <mxGeometry x="853.5" y="430" width="30" height="30" as="geometry" />
        </mxCell>
        <mxCell id="JhTt8mr3__U7guTdzDIK-55" value="&lt;font style=&quot;font-size: 7px;&quot;&gt;0.2&lt;/font&gt;" style="text;html=1;align=center;verticalAlign=middle;resizable=0;points=[];autosize=1;strokeColor=none;fillColor=none;" vertex="1" parent="1">
          <mxGeometry x="892" y="430" width="30" height="30" as="geometry" />
        </mxCell>
        <mxCell id="JhTt8mr3__U7guTdzDIK-56" value="&lt;font style=&quot;font-size: 7px;&quot;&gt;0.3&lt;/font&gt;" style="text;html=1;align=center;verticalAlign=middle;resizable=0;points=[];autosize=1;strokeColor=none;fillColor=none;" vertex="1" parent="1">
          <mxGeometry x="953" y="430" width="30" height="30" as="geometry" />
        </mxCell>
        <mxCell id="JhTt8mr3__U7guTdzDIK-57" value="&lt;font style=&quot;font-size: 7px;&quot;&gt;0.5&lt;/font&gt;" style="text;html=1;align=center;verticalAlign=middle;resizable=0;points=[];autosize=1;strokeColor=none;fillColor=none;" vertex="1" parent="1">
          <mxGeometry x="998" y="430" width="30" height="30" as="geometry" />
        </mxCell>
        <mxCell id="JhTt8mr3__U7guTdzDIK-59" value="output" style="text;html=1;align=center;verticalAlign=middle;resizable=0;points=[];autosize=1;strokeColor=none;fillColor=none;" vertex="1" parent="1">
          <mxGeometry x="908" y="490" width="60" height="30" as="geometry" />
        </mxCell>
      </root>
    </mxGraphModel>
  </diagram>
</mxfile>
